# xmcd CD database file
#
# Track frame offsets:
#	150
#	12600
#	26218
#	37222
#	48012
#	58831
#	70647
#	82798
#	94715
#	106950
#	118663
#	130386
#	145081
#	156414
#	170452
#	183044
#	192873
#	205007
#	215352
#	227755
#	241821
#	253872
#
# Disc length: 3653 seconds
#
# Revision: 1
# Processed by: cddbd v1.5.2PL0 Copyright (c) Steve Scherf et al.
# Submitted via: CDex 1.51
#
DISCID=300e4316
DTITLE=Smokey Hogg - Good Morning Little School Girl  {1945-1951}
DYEAR=2002
DGENRE=Jazz
TTITLE0=Too Many Drivers
TTITLE1=I'm Gonna Find Your Trick
TTITLE2=My Christmas Baby
TTITLE3=Oh Woman, Oh Woman
TTITLE4=Little School Girl
TTITLE5=Long Tall Mama
TTITLE6=Worryin' Mind
TTITLE7=Goin' Back To Texas
TTITLE8=He Knows How Much We Can Bear
TTITLE9=The Way You Treat Me
TTITLE10=You Gonna Look Like A Money
TTITLE11=Look In Your Eyes Pretty Mama
TTITLE12=You Won't Stay Home
TTITLE13=I'm In Love With You
TTITLE14=I Love You Baby  (Part 2)
TTITLE15=What In The World Am I Gonna Do ¿
TTITLE16=(Lets Go)  Back To The Country
TTITLE17=They Were Right
TTITLE18=Great Big Mama
TTITLE19=Key To My Door
TTITLE20=It's Rainin' Here
TTITLE21=Penitentiary Blues  (Part 1 and 2)
EXTD=YEAR: 2002
EXTT0=
EXTT1=
EXTT2=
EXTT3=
EXTT4=
EXTT5=
EXTT6=
EXTT7=
EXTT8=
EXTT9=
EXTT10=
EXTT11=
EXTT12=
EXTT13=
EXTT14=
EXTT15=
EXTT16=
EXTT17=
EXTT18=
EXTT19=
EXTT20=
EXTT21=
PLAYORDER=
